<?xml version="1.0"?>
<svg viewBox="0 0 1500 1500" xmlns="http://www.w3.org/2000/svg" fill="black" stroke="black">
 
 <g class="layer">
  <title>Layer 1</title>
  
  <path d="m255.29151,56.098632c0,0 11.659193,-7.174888 11.524633,-7.219708c-0.13456,-0.04482 14.035906,0.941681 13.901345,0.896861c-0.134561,-0.04482 16.726489,-9.372221 16.591928,-9.41704c-0.134561,-0.04482 5.515727,-11.614373 5.381166,-11.659193c-0.134561,-0.044819 10.896894,-6.681638 10.762332,-6.726457c-0.134562,-0.044819 7.30945,-0.403611 7.174888,-0.44843c-0.134562,-0.044819 4.618867,-8.475361 4.484305,-8.520179c-0.134562,-0.044819 12.690616,13.049304 12.556054,13.004484c-0.134563,-0.044819 29.730976,49.820606 29.596413,49.775785c-0.134564,-0.044821 16.278062,48.026885 16.143498,47.982063c-0.134564,-0.044823 11.793757,12.600877 11.659193,12.556054c-0.134565,-0.044823 -14.663642,21.121057 -14.798206,21.076233c-0.134564,-0.044824 -9.282477,-1.748898 -9.41704,-1.793722c-0.134564,-0.044824 -12.869921,0.493254 -13.004484,0.44843c-0.134563,-0.044824 -4.349742,4.977559 -4.484305,4.932735c-0.134563,-0.044824 -20.49324,0.044824 -20.627803,0c-0.134562,-0.044824 -3.452882,-9.372217 -3.587444,-9.41704c-0.134562,-0.044824 -8.385617,-3.54262 -8.520179,-3.587444c-0.134562,-0.044823 -8.385618,5.87442 -8.520179,5.829596c-0.134562,-0.044824 -11.973062,-3.09419 -12.107623,-3.139013c-0.134561,-0.044824 -2.107591,-21.03141 -2.242152,-21.076233c-0.134561,-0.044823 5.964158,-8.475357 5.829596,-8.520179c-0.134561,-0.044823 -7.040327,-8.475357 -7.174888,-8.520179c-0.134561,-0.044822 -6.143466,0.493253 -6.278027,0.44843c-0.134561,-0.044822 -6.143466,-17.443968 -6.278027,-17.488789c-0.134561,-0.044822 2.825144,-6.233205 2.690583,-6.278027c-0.134561,-0.044821 -11.973063,-21.031412 -12.107623,-21.076233c-0.13456,-0.044821 -7.488758,3.183834 -7.623318,3.139013c-0.13456,-0.044821 -11.524633,-15.201816 -11.524633,-15.201816z" fill="none" id="svg_2" stroke="#000000" stroke-width="5"/>
 </g>
</svg>